<?xml version="1.0"?>
<!DOCTYPE svg PUBLIC "-//W3C//DTD SVG 1.1//EN" "http://www.w3.org/Graphics/SVG/1.1/DTD/svg11.dtd">
<svg width="130.56mm" height="190.56mm" viewBox="0 0 130.56 190.56" xmlns="http://www.w3.org/2000/svg" version="1.1">
<g id="Part" transform="translate(65.280000,95.280000) scale(1,-1)">
<path id="Part_f0000"  d="M 62.0 94.0 L -62.0 94.0 L -62.0 94.0 L 62.0 94.0 L 62.0 94.0 Z " stroke="#000000" stroke-width="0.35 px" style="stroke-width:0.35;stroke-miterlimit:4;stroke-dasharray:none;stroke-linecap:square;fill:url(#shape color);fill-opacity:1;fill-rule: evenodd"/>
<path id="Part_f0001"  d="M 58.99999999999999 89.0 L 0.0 89.0 L -59.0 89.0 L -59.0 30.0 L -64.0 30.0 L -64.0 92.0 A 2 2 0 0 0 -62 94L 62.0 94.0 A 2 2 0 0 0 64 92L 64.0 30.0 L 58.99999999999999 30.0 L 58.99999999999999 89.0 Z " stroke="#000000" stroke-width="0.35 px" style="stroke-width:0.35;stroke-miterlimit:4;stroke-dasharray:none;stroke-linecap:square;fill:url(#shape color);fill-opacity:1;fill-rule: evenodd"/>
<path id="Part_f0002"  d="M -62.0 94.0 A 2 2 0 0 1 -64 92L -64.0 92.0 A 2 2 0 0 0 -62 94L -62.0 94.0 Z " stroke="#000000" stroke-width="0.35 px" style="stroke-width:0.35;stroke-miterlimit:4;stroke-dasharray:none;stroke-linecap:square;fill:url(#shape color);fill-opacity:1;fill-rule: evenodd"/>
<path id="Part_f0003"  d="M 62.0 94.0 A 2 2 0 0 0 64 92L 64.0 92.0 A 2 2 0 0 1 62 94L 62.0 94.0 Z " stroke="#000000" stroke-width="0.35 px" style="stroke-width:0.35;stroke-miterlimit:4;stroke-dasharray:none;stroke-linecap:square;fill:url(#shape color);fill-opacity:1;fill-rule: evenodd"/>
<path id="Part_f0004"  d="M 64.0 92.0 L 64.0 30.0 L 55.0 30.0 L 55.0 60.0 L 10.0 60.0 L 10.0 30.0 L 48.99999999998689 30.0 L 48.99999999998689 -30.0 L 10.0 -30.0 L 10.0 -60.0 L 55.0 -60.0 L 55.0 -30.0 L 64.0 -30.0 L 64.0 -92.0 A 2 2 0 0 0 62 -94L -62.0 -94.0 A 2 2 0 0 0 -64 -92L -64.0 -30.0 L -55.0 -30.0 L -55.0 -60.0 L -10.0 -60.0 L -10.0 -30.0 L -49.0 -30.0 L -49.0 30.0 L -10.0 30.0 L -10.0 60.0 L -55.0 60.0 L -55.0 30.0 L -64.0 30.0 L -64.0 92.0 A 2 2 0 0 0 -62 94L 62.0 94.0 A 2 2 0 0 0 64 92Z " stroke="#000000" stroke-width="0.35 px" style="stroke-width:0.35;stroke-miterlimit:4;stroke-dasharray:none;stroke-linecap:square;fill:url(#shape color);fill-opacity:1;fill-rule: evenodd"/>
<path id="Part_f0005"  d="M -64.0 92.0 L -64.0 30.0 L -64.0 30.0 L -64.0 92.0 L -64.0 92.0 Z " stroke="#000000" stroke-width="0.35 px" style="stroke-width:0.35;stroke-miterlimit:4;stroke-dasharray:none;stroke-linecap:square;fill:url(#shape color);fill-opacity:1;fill-rule: evenodd"/>
<path id="Part_f0006"  d="M 64.0 30.0 L 64.0 92.0 L 64.0 92.0 L 64.0 30.0 L 64.0 30.0 Z " stroke="#000000" stroke-width="0.35 px" style="stroke-width:0.35;stroke-miterlimit:4;stroke-dasharray:none;stroke-linecap:square;fill:url(#shape color);fill-opacity:1;fill-rule: evenodd"/>
<path id="Part_f0007"  d="M -64.0 -30.0 L -64.0 30.0 L -59.0 30.0 L -59.0 28.12249899919908 A 4 4 0 0 1 -59 21.8775L -59.0 -21.87750100080092 A 4 4 0 0 1 -59 -28.1225L -59.0 -30.0 L -64.0 -30.0 Z " stroke="#000000" stroke-width="0.35 px" style="stroke-width:0.35;stroke-miterlimit:4;stroke-dasharray:none;stroke-linecap:square;fill:url(#shape color);fill-opacity:1;fill-rule: evenodd"/>
<path id="Part_f0008"  d="M 59.0 28.1224989991992 L 58.99999999999999 30.0 L 64.0 30.0 L 64.0 -30.0 L 58.99999999999999 -30.0 L 59.0 -28.122498999199195 A 4 4 0 0 1 60.5 -25A 4 4 0 0 1 59 -21.8775L 59.0 21.877501000800805 A 4 4 0 0 1 60.5 25A 4 4 0 0 1 59 28.1225Z " stroke="#000000" stroke-width="0.35 px" style="stroke-width:0.35;stroke-miterlimit:4;stroke-dasharray:none;stroke-linecap:square;fill:url(#shape color);fill-opacity:1;fill-rule: evenodd"/>
<path id="Part_f0009"  d="M -49.0 -60.0 L -55.0 -60.0 L -55.0 -30.0 L -49.0 -30.0 L -49.0 30.0 L -55.0 30.0 L -55.0 60.0 L -49.0 60.0 L -49.0 89.0 L -59.0 89.0 L -59.0 30.0 L -59.0 28.12249899919908 M -59.000000000000085 28.122498999199127 L -52.5 25.0 M -52.5 25.0 L -59.000000000000085 21.87750100080087 L -59.0 -21.87750100080092 M -59.000000000000085 -21.877501000800873 L -52.5 -25.0 M -52.5 -25.0 L -59.000000000000085 -28.12249899919913 L -59.0 -30.0 L -59.0 -89.0 L -49.0 -89.0 L -49.0 -60.0 Z " stroke="#000000" stroke-width="0.35 px" style="stroke-width:0.35;stroke-miterlimit:4;stroke-dasharray:none;stroke-linecap:square;fill:url(#shape color);fill-opacity:1;fill-rule: evenodd"/>
<path id="Part_f0010"  d="M 58.99999999999999 -30.0 L 59.0 -28.122498999199195 M 59.0 -28.1224989991992 L 59.0 -21.877501000800798 L 59.0 21.877501000800805 M 59.0 21.8775010008008 L 59.0 28.122498999199202 L 58.99999999999999 30.0 L 58.99999999999999 89.0 L 49.0 89.0 L 49.0 60.0 L 55.0 60.0 L 55.0 30.0 L 49.0 30.0 L 49.0 -30.0 L 55.0 -30.0 L 55.0 -60.0 L 49.0 -60.0 L 49.0 -89.0 L 58.99999999999999 -89.0 L 58.99999999999999 -30.0 Z " stroke="#000000" stroke-width="0.35 px" style="stroke-width:0.35;stroke-miterlimit:4;stroke-dasharray:none;stroke-linecap:square;fill:url(#shape color);fill-opacity:1;fill-rule: evenodd"/>
<path id="Part_f0011"  d="M 49.0 89.0 L 58.99999999999999 89.0 L 0.0 89.0 L -59.0 89.0 L -49.0 89.0 L 49.0 89.0 Z " stroke="#000000" stroke-width="0.35 px" style="stroke-width:0.35;stroke-miterlimit:4;stroke-dasharray:none;stroke-linecap:square;fill:url(#shape color);fill-opacity:1;fill-rule: evenodd"/>
<path id="Part_f0012"  d="M -64.0 30.0 L -64.0 30.0 L -55.0 30.0 L -55.0 30.000000000000007 L -64.0 30.000000000000007 Z " stroke="#000000" stroke-width="0.35 px" style="stroke-width:0.35;stroke-miterlimit:4;stroke-dasharray:none;stroke-linecap:square;fill:url(#shape color);fill-opacity:1;fill-rule: evenodd"/>
<path id="Part_f0013"  d="M 55.0 30.0 L 55.0 30.0 L 64.0 30.0 L 64.0 29.999999999999993 L 55.0 29.999999999999993 Z " stroke="#000000" stroke-width="0.35 px" style="stroke-width:0.35;stroke-miterlimit:4;stroke-dasharray:none;stroke-linecap:square;fill:url(#shape color);fill-opacity:1;fill-rule: evenodd"/>
<path id="Part_f0014"  d="M -55.0 60.0 L -55.0 30.0 L -55.0 30.0 L -55.0 60.0 L -55.0 60.0 Z " stroke="#000000" stroke-width="0.35 px" style="stroke-width:0.35;stroke-miterlimit:4;stroke-dasharray:none;stroke-linecap:square;fill:url(#shape color);fill-opacity:1;fill-rule: evenodd"/>
<path id="Part_f0015"  d="M 55.0 30.0 L 55.0 30.0 L 55.0 60.0 L 55.0 60.0 L 55.0 30.0 Z " stroke="#000000" stroke-width="0.35 px" style="stroke-width:0.35;stroke-miterlimit:4;stroke-dasharray:none;stroke-linecap:square;fill:url(#shape color);fill-opacity:1;fill-rule: evenodd"/>
<path id="Part_f0016"  d="M -10.0 60.0 L -10.0 60.0 L -49.0 60.0 L -55.0 60.000000000000014 L -55.0 60.0 L -10.0 60.0 Z " stroke="#000000" stroke-width="0.35 px" style="stroke-width:0.35;stroke-miterlimit:4;stroke-dasharray:none;stroke-linecap:square;fill:url(#shape color);fill-opacity:1;fill-rule: evenodd"/>
<path id="Part_f0017"  d="M 55.0 60.0 L 55.0 60.0 L 49.0 60.0 L 10.0 60.0 L 10.0 60.0 L 55.0 60.0 Z " stroke="#000000" stroke-width="0.35 px" style="stroke-width:0.35;stroke-miterlimit:4;stroke-dasharray:none;stroke-linecap:square;fill:url(#shape color);fill-opacity:1;fill-rule: evenodd"/>
<path id="Part_f0018"  d="M -10.0 30.0 L -10.0 30.0 L -10.0 60.0 L -10.0 60.0 L -10.0 30.0 Z " stroke="#000000" stroke-width="0.35 px" style="stroke-width:0.35;stroke-miterlimit:4;stroke-dasharray:none;stroke-linecap:square;fill:url(#shape color);fill-opacity:1;fill-rule: evenodd"/>
<path id="Part_f0019"  d="M 10.0 60.0 L 10.0 60.0 L 10.0 30.0 L 10.0 30.0 L 10.0 60.0 Z " stroke="#000000" stroke-width="0.35 px" style="stroke-width:0.35;stroke-miterlimit:4;stroke-dasharray:none;stroke-linecap:square;fill:url(#shape color);fill-opacity:1;fill-rule: evenodd"/>
<path id="Part_f0020"  d="M -49.0 30.0 L -55.0 30.0 L -55.0 30.0 L -49.0 30.000000000000014 L -10.0 30.0 L -10.0 30.0 L -49.0 30.0 Z " stroke="#000000" stroke-width="0.35 px" style="stroke-width:0.35;stroke-miterlimit:4;stroke-dasharray:none;stroke-linecap:square;fill:url(#shape color);fill-opacity:1;fill-rule: evenodd"/>
<path id="Part_f0021"  d="M 10.0 30.0 L 10.0 30.0 L 49.0 30.0 L 55.0 30.0 L 55.0 30.0 L 48.99999999998689 30.0 L 10.0 30.0 Z " stroke="#000000" stroke-width="0.35 px" style="stroke-width:0.35;stroke-miterlimit:4;stroke-dasharray:none;stroke-linecap:square;fill:url(#shape color);fill-opacity:1;fill-rule: evenodd"/>
<path id="Part_f0022"  d="M -48.99999999999998 -19.999999999999982 M -48.99999999999998 -19.999999999999982 L -48.99999999999997 -17.320508075688764 L -48.99999999999997 -9.999999999999995 L -48.999999999999964 1.0576059602557942e-14 L -48.999999999999964 10.0 L -48.999999999999964 17.320508075688792 L -48.999999999999964 20.000000000000018 L -49.0 30.0 L -49.0 30.0 L -49.0 -30.0 L -48.999999999999986 -29.999999999999993 L -49.0 -19.99999999999998 Z " stroke="#000000" stroke-width="0.35 px" style="stroke-width:0.35;stroke-miterlimit:4;stroke-dasharray:none;stroke-linecap:square;fill:url(#shape color);fill-opacity:1;fill-rule: evenodd"/>
<path id="Part_f0023"  d="M 48.999999999986905 19.999999999999996 M 48.999999999986905 19.999999999999996 L 48.999999999986905 17.320508075688767 L 48.999999999986905 9.999999999999995 L 48.999999999986905 -6.285353200852648e-15 L 48.9999999999869 -10.000000000000004 L 48.9999999999869 -17.32050807568878 L 48.99999999998689 -20.000000000000004 L 48.9999999999869 -30.0 L 48.99999999998689 -30.0 L 48.99999999998689 30.0 L 48.9999999999869 29.999999999999993 L 48.9999999999869 20.0 Z " stroke="#000000" stroke-width="0.35 px" style="stroke-width:0.35;stroke-miterlimit:4;stroke-dasharray:none;stroke-linecap:square;fill:url(#shape color);fill-opacity:1;fill-rule: evenodd"/>
<path id="Part_f0024"  d="M -10.0 -30.0 L -10.0 -30.0 L -49.0 -30.0 L -55.0 -29.999999999999993 L -55.0 -30.0 L -49.0 -30.0 L -10.0 -30.0 Z " stroke="#000000" stroke-width="0.35 px" style="stroke-width:0.35;stroke-miterlimit:4;stroke-dasharray:none;stroke-linecap:square;fill:url(#shape color);fill-opacity:1;fill-rule: evenodd"/>
<path id="Part_f0025"  d="M 55.0 -30.0 L 55.0 -30.0 L 48.99999999998689 -30.0 L 10.0 -30.0 L 10.0 -30.0 L 49.0 -30.0 L 55.0 -30.0 Z " stroke="#000000" stroke-width="0.35 px" style="stroke-width:0.35;stroke-miterlimit:4;stroke-dasharray:none;stroke-linecap:square;fill:url(#shape color);fill-opacity:1;fill-rule: evenodd"/>
<path id="Part_f0026"  d="M -10.0 -60.0 L -10.0 -60.0 L -10.0 -30.0 L -10.0 -30.0 L -10.0 -60.0 Z " stroke="#000000" stroke-width="0.35 px" style="stroke-width:0.35;stroke-miterlimit:4;stroke-dasharray:none;stroke-linecap:square;fill:url(#shape color);fill-opacity:1;fill-rule: evenodd"/>
<path id="Part_f0027"  d="M 10.0 -60.0 L 10.0 -30.0 L 10.0 -30.0 L 10.0 -60.0 L 10.0 -60.0 Z " stroke="#000000" stroke-width="0.35 px" style="stroke-width:0.35;stroke-miterlimit:4;stroke-dasharray:none;stroke-linecap:square;fill:url(#shape color);fill-opacity:1;fill-rule: evenodd"/>
<path id="Part_f0028"  d="M -55.0 -60.0 L -55.0 -60.0 L -49.00000000000001 -60.0 L -10.0 -60.0 L -10.0 -60.0 L -55.0 -60.0 Z " stroke="#000000" stroke-width="0.35 px" style="stroke-width:0.35;stroke-miterlimit:4;stroke-dasharray:none;stroke-linecap:square;fill:url(#shape color);fill-opacity:1;fill-rule: evenodd"/>
<path id="Part_f0029"  d="M 55.0 -60.0 L 55.0 -60.0 L 10.0 -60.0 L 10.0 -60.0 L 49.0 -60.0 L 55.0 -60.0 Z " stroke="#000000" stroke-width="0.35 px" style="stroke-width:0.35;stroke-miterlimit:4;stroke-dasharray:none;stroke-linecap:square;fill:url(#shape color);fill-opacity:1;fill-rule: evenodd"/>
<path id="Part_f0030"  d="M -55.0 -30.0 L -55.0 -30.0 L -55.0 -60.0 L -55.0 -60.0 L -55.0 -30.0 Z " stroke="#000000" stroke-width="0.35 px" style="stroke-width:0.35;stroke-miterlimit:4;stroke-dasharray:none;stroke-linecap:square;fill:url(#shape color);fill-opacity:1;fill-rule: evenodd"/>
<path id="Part_f0031"  d="M 55.0 -30.0 L 55.0 -60.0 L 55.0 -60.0 L 55.0 -30.0 L 55.0 -30.0 Z " stroke="#000000" stroke-width="0.35 px" style="stroke-width:0.35;stroke-miterlimit:4;stroke-dasharray:none;stroke-linecap:square;fill:url(#shape color);fill-opacity:1;fill-rule: evenodd"/>
<path id="Part_f0032"  d="M -55.0 -30.0 L -55.0 -30.0 L -64.0 -30.0 L -63.999999999999986 -29.999999999999993 L -54.99999999999997 -29.999999999999986 Z " stroke="#000000" stroke-width="0.35 px" style="stroke-width:0.35;stroke-miterlimit:4;stroke-dasharray:none;stroke-linecap:square;fill:url(#shape color);fill-opacity:1;fill-rule: evenodd"/>
<path id="Part_f0033"  d="M 64.0 -30.0 L 64.0 -30.0 L 55.0 -30.0 L 55.0 -30.000000000000007 L 64.0 -30.000000000000014 Z " stroke="#000000" stroke-width="0.35 px" style="stroke-width:0.35;stroke-miterlimit:4;stroke-dasharray:none;stroke-linecap:square;fill:url(#shape color);fill-opacity:1;fill-rule: evenodd"/>
<path id="Part_f0034"  d="M -64.0 -30.0 L -64.0 -92.0 L -64.0 -92.0 L -64.0 -30.0 L -64.0 -30.0 Z " stroke="#000000" stroke-width="0.35 px" style="stroke-width:0.35;stroke-miterlimit:4;stroke-dasharray:none;stroke-linecap:square;fill:url(#shape color);fill-opacity:1;fill-rule: evenodd"/>
<path id="Part_f0035"  d="M 64.0 -92.0 L 64.0 -30.0 L 64.0 -30.0 L 64.0 -92.0 L 64.0 -92.0 Z " stroke="#000000" stroke-width="0.35 px" style="stroke-width:0.35;stroke-miterlimit:4;stroke-dasharray:none;stroke-linecap:square;fill:url(#shape color);fill-opacity:1;fill-rule: evenodd"/>
<path id="Part_f0036"  d="M -62.0 -94.0 A 2 2 0 0 0 -64 -92L -64.0 -92.0 A 2 2 0 0 1 -62 -94L -62.0 -94.0 Z " stroke="#000000" stroke-width="0.35 px" style="stroke-width:0.35;stroke-miterlimit:4;stroke-dasharray:none;stroke-linecap:square;fill:url(#shape color);fill-opacity:1;fill-rule: evenodd"/>
<path id="Part_f0037"  d="M 64.0 -92.0 A 2 2 0 0 0 62 -94L 62.0 -94.0 A 2 2 0 0 1 64 -92L 64.0 -92.0 Z " stroke="#000000" stroke-width="0.35 px" style="stroke-width:0.35;stroke-miterlimit:4;stroke-dasharray:none;stroke-linecap:square;fill:url(#shape color);fill-opacity:1;fill-rule: evenodd"/>
<path id="Part_f0038"  d="M -62.0 -94.0 L 62.0 -94.0 L 62.0 -94.0 L -62.0 -94.0 L -62.0 -94.0 Z " stroke="#000000" stroke-width="0.35 px" style="stroke-width:0.35;stroke-miterlimit:4;stroke-dasharray:none;stroke-linecap:square;fill:url(#shape color);fill-opacity:1;fill-rule: evenodd"/>
<path id="Part_f0039"  d="M -64.0 30.0 L -64.0 -30.0 L -64.0 -30.0 L -64.0 30.0 L -64.0 30.0 Z " stroke="#000000" stroke-width="0.35 px" style="stroke-width:0.35;stroke-miterlimit:4;stroke-dasharray:none;stroke-linecap:square;fill:url(#shape color);fill-opacity:1;fill-rule: evenodd"/>
<path id="Part_f0040"  d="M 64.0 -30.0 L 64.0 30.0 L 64.0 30.0 L 64.0 -30.0 L 64.0 -30.0 Z " stroke="#000000" stroke-width="0.35 px" style="stroke-width:0.35;stroke-miterlimit:4;stroke-dasharray:none;stroke-linecap:square;fill:url(#shape color);fill-opacity:1;fill-rule: evenodd"/>
<circle cx="-56.5" cy="25.0" r="4.0" stroke="#000000" stroke-width="0.35 px" style="stroke-width:0.35;stroke-miterlimit:4;stroke-dasharray:none;stroke-linecap:square;fill:url(#shape color)"/>
<circle cx="-56.5" cy="-25.0" r="4.0" stroke="#000000" stroke-width="0.35 px" style="stroke-width:0.35;stroke-miterlimit:4;stroke-dasharray:none;stroke-linecap:square;fill:url(#shape color)"/>
<path id="Part_f0043"  d="M -64.0 -30.0 L -64.0 -92.0 A 2 2 0 0 1 -62 -94L 62.0 -94.0 A 2 2 0 0 1 64 -92L 64.0 -30.0 L 58.99999999999999 -30.0 L 58.99999999999999 -89.0 L 0.0 -89.0 L -59.0 -89.0 L -59.0 -30.0 L -64.0 -30.0 Z " stroke="#000000" stroke-width="0.35 px" style="stroke-width:0.35;stroke-miterlimit:4;stroke-dasharray:none;stroke-linecap:square;fill:url(#shape color);fill-opacity:1;fill-rule: evenodd"/>
<circle cx="56.5" cy="-25.0" r="4.0" stroke="#000000" stroke-width="0.35 px" style="stroke-width:0.35;stroke-miterlimit:4;stroke-dasharray:none;stroke-linecap:square;fill:url(#shape color)"/>
<circle cx="56.5" cy="25.0" r="4.0" stroke="#000000" stroke-width="0.35 px" style="stroke-width:0.35;stroke-miterlimit:4;stroke-dasharray:none;stroke-linecap:square;fill:url(#shape color)"/>
<path id="Part_f0046"  d="M -49.0 -89.0 L 49.0 -89.0 L 58.99999999999999 -89.0 L 0.0 -89.0 L -59.0 -89.0 L -49.0 -89.0 Z " stroke="#000000" stroke-width="0.35 px" style="stroke-width:0.35;stroke-miterlimit:4;stroke-dasharray:none;stroke-linecap:square;fill:url(#shape color);fill-opacity:1;fill-rule: evenodd"/>
<path id="Part_f0047"  d="M 49.0 -60.0 L 10.0 -60.0 L 10.0 -30.0 L 49.0 -30.0 L 49.0 30.0 L 10.0 30.0 L 10.0 60.0 L 49.0 60.0 L 49.0 89.0 L -49.0 89.0 L -49.0 60.0 L -10.0 60.0 L -10.0 30.0 L -49.0 30.0 L -49.0 -30.0 L -10.0 -30.0 L -10.0 -60.0 L -49.0 -60.0 L -49.0 -89.0 L 49.0 -89.0 L 49.0 -60.0 Z " stroke="#000000" stroke-width="0.35 px" style="stroke-width:0.35;stroke-miterlimit:4;stroke-dasharray:none;stroke-linecap:square;fill:url(#shape color);fill-opacity:1;fill-rule: evenodd"/>
<path id="Part_f0048"  d="M -55.0 30.0 L -55.0 30.0 L -49.0 30.0 L -49.0 30.000000000000007 L -55.0 30.000000000000007 Z " stroke="#000000" stroke-width="0.35 px" style="stroke-width:0.35;stroke-miterlimit:4;stroke-dasharray:none;stroke-linecap:square;fill:url(#shape color);fill-opacity:1;fill-rule: evenodd"/>
<path id="Part_f0049"  d="M -64.0 30.000000000000007 L -64.00000000000001 30.00000000000003 L -48.999999999999986 30.00000000000003 L -48.99999999999998 30.000000000000025 L -55.0 30.000000000000007 L -64.0 30.000000000000007 Z " stroke="#000000" stroke-width="0.35 px" style="stroke-width:0.35;stroke-miterlimit:4;stroke-dasharray:none;stroke-linecap:square;fill:url(#shape color);fill-opacity:1;fill-rule: evenodd"/>
<path id="Part_f0050"  d="M -64.0 30.0 L -64.0 20.00000000000002 M -63.999999999999964 20.00000000000002 L -63.999999999999964 17.320508075688792 L -63.999999999999964 10.00000000000002 L -63.999999999999964 1.8804646799147354e-14 L -63.99999999999997 -9.999999999999979 L -63.99999999999997 -17.320508075688757 L -63.99999999999998 -19.99999999999998 L -64.0 -29.99999999999998 L -64.0 -30.0 L -64.0 30.0 L -64.0 30.000000000000007 Z " stroke="#000000" stroke-width="0.35 px" style="stroke-width:0.35;stroke-miterlimit:4;stroke-dasharray:none;stroke-linecap:square;fill:url(#shape color);fill-opacity:1;fill-rule: evenodd"/>
<path id="Part_f0051"  d="M 64.0 -30.0 L 64.0 -20.000000000000007 M 63.99999999999999 -20.000000000000007 L 64.0 -17.32050807568879 L 64.0 -10.00000000000002 L 64.0 -1.451394039744206e-14 L 64.0 9.999999999999975 L 64.0 17.320508075688767 L 64.0 19.999999999999993 L 64.0 29.99999999999999 L 64.0 30.0 L 64.0 -30.0 L 64.0 -30.000000000000007 Z " stroke="#000000" stroke-width="0.35 px" style="stroke-width:0.35;stroke-miterlimit:4;stroke-dasharray:none;stroke-linecap:square;fill:url(#shape color);fill-opacity:1;fill-rule: evenodd"/>
<path id="Part_f0052"  d="M 48.9999999999869 29.99999999999999 L 55.0 29.99999999999999 L 64.0 29.999999999999986 L 64.0 29.999999999999993 L 48.99999999998689 29.999999999999993 L 48.9999999999869 29.99999999999999 Z " stroke="#000000" stroke-width="0.35 px" style="stroke-width:0.35;stroke-miterlimit:4;stroke-dasharray:none;stroke-linecap:square;fill:url(#shape color);fill-opacity:1;fill-rule: evenodd"/>
<path id="Part_f0053"  d="M 48.99999999998689 30.0 L 48.99999999998689 30.0 L 55.0 30.0 L 55.0 29.999999999999993 L 48.9999999999869 29.999999999999993 Z " stroke="#000000" stroke-width="0.35 px" style="stroke-width:0.35;stroke-miterlimit:4;stroke-dasharray:none;stroke-linecap:square;fill:url(#shape color);fill-opacity:1;fill-rule: evenodd"/>
<path id="Part_f0054"  d="M -49.0 -30.0 L -49.0 -30.0 L -55.0 -30.0 L -54.999999999999986 -29.999999999999993 L -48.99999999999997 -29.99999999999999 Z " stroke="#000000" stroke-width="0.35 px" style="stroke-width:0.35;stroke-miterlimit:4;stroke-dasharray:none;stroke-linecap:square;fill:url(#shape color);fill-opacity:1;fill-rule: evenodd"/>
<path id="Part_f0055"  d="M -48.99999999999998 -19.999999999999982 L -48.999999999999986 -29.999999999999993 L -48.99999999999998 -29.99999999999998 L -48.99999999999998 -19.99999999999998 L -48.99999999999997 -19.999999999999982 Z " stroke="#000000" stroke-width="0.35 px" style="stroke-width:0.35;stroke-miterlimit:4;stroke-dasharray:none;stroke-linecap:square;fill:url(#shape color);fill-opacity:1;fill-rule: evenodd"/>
<path id="Part_f0056"  d="M -48.99999999999998 -19.999999999999982 M -48.99999999999998 -19.999999999999982 L -48.99999999999997 -17.320508075688764 L -48.99999999999997 -9.999999999999995 L -48.999999999999964 1.0576059602557942e-14 L -48.999999999999964 10.0 L -48.999999999999964 17.320508075688792 L -48.999999999999964 20.000000000000018 L -63.99999999999997 20.00000000000002 M -63.999999999999964 20.00000000000002 L -63.999999999999964 17.320508075688792 L -63.999999999999964 10.00000000000002 L -63.999999999999964 1.8804646799147354e-14 L -63.99999999999997 -9.999999999999979 L -63.99999999999997 -17.320508075688757 L -63.99999999999998 -19.99999999999998 L -48.99999999999998 -19.999999999999982 Z " stroke="#000000" stroke-width="0.35 px" style="stroke-width:0.35;stroke-miterlimit:4;stroke-dasharray:none;stroke-linecap:square;fill:url(#shape color);fill-opacity:1;fill-rule: evenodd"/>
<path id="Part_f0057"  d="M -49.0 30.000000000000007 L -48.999999999999986 30.00000000000003 L -48.999999999999986 20.00000000000003 L -48.99999999999998 20.000000000000025 L -49.0 30.0 Z " stroke="#000000" stroke-width="0.35 px" style="stroke-width:0.35;stroke-miterlimit:4;stroke-dasharray:none;stroke-linecap:square;fill:url(#shape color);fill-opacity:1;fill-rule: evenodd"/>
<path id="Part_f0058"  d="M 48.9999999999869 19.999999999999996 L 48.9999999999869 29.999999999999993 L 48.99999999998689 29.999999999999993 L 48.99999999998689 20.0 L 48.9999999999869 19.999999999999996 Z " stroke="#000000" stroke-width="0.35 px" style="stroke-width:0.35;stroke-miterlimit:4;stroke-dasharray:none;stroke-linecap:square;fill:url(#shape color);fill-opacity:1;fill-rule: evenodd"/>
<path id="Part_f0059"  d="M 63.99999999999999 -20.000000000000007 M 63.99999999999999 -20.000000000000007 L 64.0 -17.32050807568879 L 64.0 -10.00000000000002 L 64.0 -1.451394039744206e-14 L 64.0 9.999999999999975 L 64.0 17.320508075688767 L 64.0 19.999999999999993 L 48.9999999999869 19.999999999999996 M 48.999999999986905 19.999999999999996 L 48.999999999986905 17.320508075688767 L 48.999999999986905 9.999999999999995 L 48.999999999986905 -6.285353200852648e-15 L 48.9999999999869 -10.000000000000004 L 48.9999999999869 -17.32050807568878 L 48.99999999998689 -20.000000000000004 L 63.99999999999999 -20.000000000000007 Z " stroke="#000000" stroke-width="0.35 px" style="stroke-width:0.35;stroke-miterlimit:4;stroke-dasharray:none;stroke-linecap:square;fill:url(#shape color);fill-opacity:1;fill-rule: evenodd"/>
<path id="Part_f0060"  d="M 48.9999999999869 -30.000000000000007 L 48.99999999998689 -30.000000000000007 L 48.99999999998689 -20.0 L 48.9999999999869 -20.000000000000004 L 48.9999999999869 -30.0 Z " stroke="#000000" stroke-width="0.35 px" style="stroke-width:0.35;stroke-miterlimit:4;stroke-dasharray:none;stroke-linecap:square;fill:url(#shape color);fill-opacity:1;fill-rule: evenodd"/>
<path id="Part_f0061"  d="M 55.0 -30.0 L 55.0 -30.0 L 48.99999999998689 -30.0 L 48.9999999999869 -30.000000000000007 L 55.0 -30.00000000000001 Z " stroke="#000000" stroke-width="0.35 px" style="stroke-width:0.35;stroke-miterlimit:4;stroke-dasharray:none;stroke-linecap:square;fill:url(#shape color);fill-opacity:1;fill-rule: evenodd"/>
<path id="Part_f0062"  d="M -48.999999999999986 -29.999999999999993 L -54.999999999999986 -29.999999999999993 L -63.999999999999986 -29.999999999999993 L -63.99999999999998 -29.99999999999998 L -48.99999999999998 -29.99999999999998 L -48.99999999999997 -29.999999999999982 Z " stroke="#000000" stroke-width="0.35 px" style="stroke-width:0.35;stroke-miterlimit:4;stroke-dasharray:none;stroke-linecap:square;fill:url(#shape color);fill-opacity:1;fill-rule: evenodd"/>
<path id="Part_f0063"  d="M 64.0 -30.000000000000007 L 64.0 -30.000000000000007 L 48.99999999998689 -30.000000000000007 L 48.9999999999869 -30.00000000000001 L 55.0 -30.00000000000001 L 64.0 -30.000000000000014 Z " stroke="#000000" stroke-width="0.35 px" style="stroke-width:0.35;stroke-miterlimit:4;stroke-dasharray:none;stroke-linecap:square;fill:url(#shape color);fill-opacity:1;fill-rule: evenodd"/>
<circle cx="-56.5" cy="25.0" r="4.0" stroke="#000000" stroke-width="0.35 px" style="stroke-width:0.35;stroke-miterlimit:4;stroke-dasharray:none;stroke-linecap:square;fill:url(#shape color)"/>
<circle cx="-56.5" cy="-25.0" r="4.0" stroke="#000000" stroke-width="0.35 px" style="stroke-width:0.35;stroke-miterlimit:4;stroke-dasharray:none;stroke-linecap:square;fill:url(#shape color)"/>
<circle cx="56.5" cy="-25.0" r="4.0" stroke="#000000" stroke-width="0.35 px" style="stroke-width:0.35;stroke-miterlimit:4;stroke-dasharray:none;stroke-linecap:square;fill:url(#shape color)"/>
<circle cx="56.5" cy="25.0" r="4.0" stroke="#000000" stroke-width="0.35 px" style="stroke-width:0.35;stroke-miterlimit:4;stroke-dasharray:none;stroke-linecap:square;fill:url(#shape color)"/>
<path id="Part_f0068"  d="M -63.99999999999997 20.00000000000002 L -64.00000000000001 20.00000000000003 L -64.00000000000001 30.00000000000003 L -64.00000000000001 30.000000000000025 L -64.0 20.00000000000002 Z " stroke="#000000" stroke-width="0.35 px" style="stroke-width:0.35;stroke-miterlimit:4;stroke-dasharray:none;stroke-linecap:square;fill:url(#shape color);fill-opacity:1;fill-rule: evenodd"/>
<path id="Part_f0069"  d="M -48.999999999999986 30.00000000000003 L -48.999999999999986 20.00000000000003 L -64.00000000000001 20.00000000000003 L -64.00000000000001 30.00000000000003 L -48.999999999999986 30.00000000000003 Z M -62.500000000000014 28.50000000000003 L -62.500000000000014 21.50000000000003 L -50.499999999999986 21.50000000000003 L -50.499999999999986 28.50000000000003 L -62.500000000000014 28.50000000000003 Z " stroke="#000000" stroke-width="0.35 px" style="stroke-width:0.35;stroke-miterlimit:4;stroke-dasharray:none;stroke-linecap:square;fill:url(#shape color);fill-opacity:1;fill-rule: evenodd"/>
<path id="Part_f0070"  d="M -63.999999999999986 -29.999999999999993 L -63.99999999999998 -19.99999999999998 L -63.99999999999998 -19.99999999999998 L -63.99999999999998 -29.99999999999998 L -63.99999999999997 -29.999999999999982 Z " stroke="#000000" stroke-width="0.35 px" style="stroke-width:0.35;stroke-miterlimit:4;stroke-dasharray:none;stroke-linecap:square;fill:url(#shape color);fill-opacity:1;fill-rule: evenodd"/>
<path id="Part_f0071"  d="M 63.99999999999999 -20.000000000000007 L 64.0 -20.0 L 64.0 -30.000000000000007 L 64.0 -30.00000000000001 L 64.0 -20.000000000000007 Z " stroke="#000000" stroke-width="0.35 px" style="stroke-width:0.35;stroke-miterlimit:4;stroke-dasharray:none;stroke-linecap:square;fill:url(#shape color);fill-opacity:1;fill-rule: evenodd"/>
<path id="Part_f0072"  d="M 64.0 29.999999999999993 L 64.0 19.999999999999993 L 64.0 20.0 L 64.0 29.999999999999993 L 64.0 29.99999999999999 Z " stroke="#000000" stroke-width="0.35 px" style="stroke-width:0.35;stroke-miterlimit:4;stroke-dasharray:none;stroke-linecap:square;fill:url(#shape color);fill-opacity:1;fill-rule: evenodd"/>
<path id="Part_f0073"  d="M 48.99999999998689 20.0 L 64.0 20.0 L 64.0 29.999999999999993 L 48.99999999998689 29.999999999999993 L 48.99999999998689 20.0 Z M 50.49999999998689 28.499999999999993 L 50.49999999998689 21.5 L 62.5 21.5 L 62.5 28.499999999999993 L 50.49999999998689 28.499999999999993 Z " stroke="#000000" stroke-width="0.35 px" style="stroke-width:0.35;stroke-miterlimit:4;stroke-dasharray:none;stroke-linecap:square;fill:url(#shape color);fill-opacity:1;fill-rule: evenodd"/>
<path id="Part_f0074"  d="M -63.99999999999998 -19.99999999999998 L -48.99999999999998 -19.999999999999982 L -48.99999999999998 -19.99999999999998 L -63.99999999999998 -19.99999999999998 L -63.99999999999997 -19.999999999999982 Z " stroke="#000000" stroke-width="0.35 px" style="stroke-width:0.35;stroke-miterlimit:4;stroke-dasharray:none;stroke-linecap:square;fill:url(#shape color);fill-opacity:1;fill-rule: evenodd"/>
<path id="Part_f0075"  d="M -48.99999999999998 -19.99999999999998 L -63.99999999999998 -19.99999999999998 L -63.99999999999998 -29.99999999999998 L -48.99999999999998 -29.99999999999998 L -48.99999999999998 -19.99999999999998 Z M -62.49999999999998 -21.49999999999998 L -62.49999999999998 -28.49999999999998 L -50.49999999999998 -28.49999999999998 L -50.49999999999998 -21.49999999999998 L -62.49999999999998 -21.49999999999998 Z " stroke="#000000" stroke-width="0.35 px" style="stroke-width:0.35;stroke-miterlimit:4;stroke-dasharray:none;stroke-linecap:square;fill:url(#shape color);fill-opacity:1;fill-rule: evenodd"/>
<path id="Part_f0076"  d="M -48.99999999999997 20.000000000000018 L -48.999999999999986 20.00000000000003 L -64.00000000000001 20.00000000000003 L -64.00000000000001 20.000000000000025 L -48.99999999999997 20.000000000000018 Z " stroke="#000000" stroke-width="0.35 px" style="stroke-width:0.35;stroke-miterlimit:4;stroke-dasharray:none;stroke-linecap:square;fill:url(#shape color);fill-opacity:1;fill-rule: evenodd"/>
<path id="Part_f0077"  d="M 64.0 19.999999999999993 L 48.9999999999869 19.999999999999996 L 48.99999999998689 20.0 L 64.0 20.0 L 64.0 19.999999999999996 Z " stroke="#000000" stroke-width="0.35 px" style="stroke-width:0.35;stroke-miterlimit:4;stroke-dasharray:none;stroke-linecap:square;fill:url(#shape color);fill-opacity:1;fill-rule: evenodd"/>
<path id="Part_f0078"  d="M 48.99999999998689 -20.000000000000004 L 48.99999999998689 -20.0 L 64.0 -20.0 L 64.0 -20.000000000000004 L 48.9999999999869 -20.000000000000004 Z " stroke="#000000" stroke-width="0.35 px" style="stroke-width:0.35;stroke-miterlimit:4;stroke-dasharray:none;stroke-linecap:square;fill:url(#shape color);fill-opacity:1;fill-rule: evenodd"/>
<path id="Part_f0079"  d="M 64.0 -20.0 L 64.0 -30.000000000000007 L 48.99999999998689 -30.000000000000007 L 48.99999999998689 -20.0 L 64.0 -20.0 Z M 50.49999999998689 -21.5 L 50.49999999998689 -28.500000000000007 L 62.5 -28.500000000000007 L 62.5 -21.5 L 50.49999999998689 -21.5 Z " stroke="#000000" stroke-width="0.35 px" style="stroke-width:0.35;stroke-miterlimit:4;stroke-dasharray:none;stroke-linecap:square;fill:url(#shape color);fill-opacity:1;fill-rule: evenodd"/>
<circle cx="-56.5" cy="25.0" r="2.25" stroke="#000000" stroke-width="0.35 px" style="stroke-width:0.35;stroke-miterlimit:4;stroke-dasharray:none;stroke-linecap:square;fill:url(#shape color)"/>
<circle cx="-56.5" cy="-25.0" r="2.25" stroke="#000000" stroke-width="0.35 px" style="stroke-width:0.35;stroke-miterlimit:4;stroke-dasharray:none;stroke-linecap:square;fill:url(#shape color)"/>
<circle cx="56.5" cy="-25.0" r="2.25" stroke="#000000" stroke-width="0.35 px" style="stroke-width:0.35;stroke-miterlimit:4;stroke-dasharray:none;stroke-linecap:square;fill:url(#shape color)"/>
<circle cx="56.5" cy="25.0" r="2.25" stroke="#000000" stroke-width="0.35 px" style="stroke-width:0.35;stroke-miterlimit:4;stroke-dasharray:none;stroke-linecap:square;fill:url(#shape color)"/>
<path id="Part_f0084"  d="M -50.49999999999998 28.500000000000025 L -62.50000000000001 28.500000000000025 L -62.500000000000014 28.50000000000003 L -50.499999999999986 28.50000000000003 L -50.49999999999998 28.500000000000025 Z " stroke="#000000" stroke-width="0.35 px" style="stroke-width:0.35;stroke-miterlimit:4;stroke-dasharray:none;stroke-linecap:square;fill:url(#shape color);fill-opacity:1;fill-rule: evenodd"/>
<path id="Part_f0085"  d="M -50.49999999999998 21.500000000000025 L -50.49999999999998 28.500000000000025 L -50.499999999999986 28.50000000000003 L -50.499999999999986 21.50000000000003 L -50.49999999999998 21.500000000000025 Z " stroke="#000000" stroke-width="0.35 px" style="stroke-width:0.35;stroke-miterlimit:4;stroke-dasharray:none;stroke-linecap:square;fill:url(#shape color);fill-opacity:1;fill-rule: evenodd"/>
<path id="Part_f0086"  d="M -62.50000000000001 21.500000000000025 L -50.49999999999998 21.500000000000025 L -50.499999999999986 21.50000000000003 L -62.500000000000014 21.50000000000003 L -62.50000000000001 21.500000000000025 Z " stroke="#000000" stroke-width="0.35 px" style="stroke-width:0.35;stroke-miterlimit:4;stroke-dasharray:none;stroke-linecap:square;fill:url(#shape color);fill-opacity:1;fill-rule: evenodd"/>
<path id="Part_f0087"  d="M -62.50000000000001 28.500000000000025 L -62.50000000000001 21.500000000000025 L -62.500000000000014 21.50000000000003 L -62.500000000000014 28.50000000000003 L -62.50000000000001 28.500000000000025 Z " stroke="#000000" stroke-width="0.35 px" style="stroke-width:0.35;stroke-miterlimit:4;stroke-dasharray:none;stroke-linecap:square;fill:url(#shape color);fill-opacity:1;fill-rule: evenodd"/>
<path id="Part_f0088"  d="M 62.50000000000001 28.49999999999999 L 50.4999999999869 28.49999999999999 L 50.49999999998689 28.499999999999993 L 62.5 28.499999999999993 L 62.50000000000001 28.49999999999999 Z " stroke="#000000" stroke-width="0.35 px" style="stroke-width:0.35;stroke-miterlimit:4;stroke-dasharray:none;stroke-linecap:square;fill:url(#shape color);fill-opacity:1;fill-rule: evenodd"/>
<path id="Part_f0089"  d="M 62.50000000000001 21.499999999999996 L 62.50000000000001 28.49999999999999 L 62.5 28.499999999999993 L 62.5 21.5 L 62.50000000000001 21.499999999999996 Z " stroke="#000000" stroke-width="0.35 px" style="stroke-width:0.35;stroke-miterlimit:4;stroke-dasharray:none;stroke-linecap:square;fill:url(#shape color);fill-opacity:1;fill-rule: evenodd"/>
<path id="Part_f0090"  d="M 50.4999999999869 21.499999999999996 L 62.50000000000001 21.499999999999996 L 62.5 21.5 L 50.49999999998689 21.5 L 50.4999999999869 21.499999999999996 Z " stroke="#000000" stroke-width="0.35 px" style="stroke-width:0.35;stroke-miterlimit:4;stroke-dasharray:none;stroke-linecap:square;fill:url(#shape color);fill-opacity:1;fill-rule: evenodd"/>
<path id="Part_f0091"  d="M 50.4999999999869 28.49999999999999 L 50.4999999999869 21.499999999999996 L 50.49999999998689 21.5 L 50.49999999998689 28.499999999999993 L 50.4999999999869 28.49999999999999 Z " stroke="#000000" stroke-width="0.35 px" style="stroke-width:0.35;stroke-miterlimit:4;stroke-dasharray:none;stroke-linecap:square;fill:url(#shape color);fill-opacity:1;fill-rule: evenodd"/>
<path id="Part_f0092"  d="M -50.49999999999997 -21.499999999999982 L -62.49999999999997 -21.499999999999982 L -62.49999999999998 -21.49999999999998 L -50.49999999999998 -21.49999999999998 L -50.49999999999997 -21.499999999999982 Z " stroke="#000000" stroke-width="0.35 px" style="stroke-width:0.35;stroke-miterlimit:4;stroke-dasharray:none;stroke-linecap:square;fill:url(#shape color);fill-opacity:1;fill-rule: evenodd"/>
<path id="Part_f0093"  d="M -50.49999999999997 -28.499999999999982 L -50.49999999999997 -21.499999999999982 L -50.49999999999998 -21.49999999999998 L -50.49999999999998 -28.49999999999998 L -50.49999999999997 -28.499999999999982 Z " stroke="#000000" stroke-width="0.35 px" style="stroke-width:0.35;stroke-miterlimit:4;stroke-dasharray:none;stroke-linecap:square;fill:url(#shape color);fill-opacity:1;fill-rule: evenodd"/>
<path id="Part_f0094"  d="M -62.49999999999997 -28.499999999999982 L -50.49999999999997 -28.499999999999982 L -50.49999999999998 -28.49999999999998 L -62.49999999999998 -28.49999999999998 L -62.49999999999997 -28.499999999999982 Z " stroke="#000000" stroke-width="0.35 px" style="stroke-width:0.35;stroke-miterlimit:4;stroke-dasharray:none;stroke-linecap:square;fill:url(#shape color);fill-opacity:1;fill-rule: evenodd"/>
<path id="Part_f0095"  d="M -62.49999999999997 -21.499999999999982 L -62.49999999999997 -28.499999999999982 L -62.49999999999998 -28.49999999999998 L -62.49999999999998 -21.49999999999998 L -62.49999999999997 -21.499999999999982 Z " stroke="#000000" stroke-width="0.35 px" style="stroke-width:0.35;stroke-miterlimit:4;stroke-dasharray:none;stroke-linecap:square;fill:url(#shape color);fill-opacity:1;fill-rule: evenodd"/>
<path id="Part_f0096"  d="M 62.50000000000001 -21.500000000000004 L 50.4999999999869 -21.500000000000004 L 50.49999999998689 -21.5 L 62.5 -21.5 L 62.50000000000001 -21.500000000000004 Z " stroke="#000000" stroke-width="0.35 px" style="stroke-width:0.35;stroke-miterlimit:4;stroke-dasharray:none;stroke-linecap:square;fill:url(#shape color);fill-opacity:1;fill-rule: evenodd"/>
<path id="Part_f0097"  d="M 62.50000000000001 -28.50000000000001 L 62.50000000000001 -21.500000000000004 L 62.5 -21.5 L 62.5 -28.500000000000007 L 62.50000000000001 -28.50000000000001 Z " stroke="#000000" stroke-width="0.35 px" style="stroke-width:0.35;stroke-miterlimit:4;stroke-dasharray:none;stroke-linecap:square;fill:url(#shape color);fill-opacity:1;fill-rule: evenodd"/>
<path id="Part_f0098"  d="M 50.4999999999869 -28.50000000000001 L 62.50000000000001 -28.50000000000001 L 62.5 -28.500000000000007 L 50.49999999998689 -28.500000000000007 L 50.4999999999869 -28.50000000000001 Z " stroke="#000000" stroke-width="0.35 px" style="stroke-width:0.35;stroke-miterlimit:4;stroke-dasharray:none;stroke-linecap:square;fill:url(#shape color);fill-opacity:1;fill-rule: evenodd"/>
<path id="Part_f0099"  d="M 50.4999999999869 -21.500000000000004 L 50.4999999999869 -28.50000000000001 L 50.49999999998689 -28.500000000000007 L 50.49999999998689 -21.5 L 50.4999999999869 -21.500000000000004 Z " stroke="#000000" stroke-width="0.35 px" style="stroke-width:0.35;stroke-miterlimit:4;stroke-dasharray:none;stroke-linecap:square;fill:url(#shape color);fill-opacity:1;fill-rule: evenodd"/>
<circle cx="-56.5" cy="25.0" r="2.25" stroke="#000000" stroke-width="0.35 px" style="stroke-width:0.35;stroke-miterlimit:4;stroke-dasharray:none;stroke-linecap:square;fill:url(#shape color)"/>
<circle cx="-56.5" cy="-25.0" r="2.25" stroke="#000000" stroke-width="0.35 px" style="stroke-width:0.35;stroke-miterlimit:4;stroke-dasharray:none;stroke-linecap:square;fill:url(#shape color)"/>
<circle cx="56.5" cy="-25.0" r="2.25" stroke="#000000" stroke-width="0.35 px" style="stroke-width:0.35;stroke-miterlimit:4;stroke-dasharray:none;stroke-linecap:square;fill:url(#shape color)"/>
<circle cx="56.5" cy="25.0" r="2.25" stroke="#000000" stroke-width="0.35 px" style="stroke-width:0.35;stroke-miterlimit:4;stroke-dasharray:none;stroke-linecap:square;fill:url(#shape color)"/>
<path id="Part_f0104"  d="M 48.5 -30.0 L 63.5 -30.0 L 63.5 -30.0 L 48.5 -30.0 L 48.5 -30.0 Z " stroke="#000000" stroke-width="0.35 px" style="stroke-width:0.35;stroke-miterlimit:4;stroke-dasharray:none;stroke-linecap:square;fill:url(#shape color);fill-opacity:1;fill-rule: evenodd"/>
<path id="Part_f0105"  d="M 63.5 -30.0 L 63.5 -19.078784028339104 M 63.49999999999999 -19.078784028339015 L 63.49999999999999 -13.773531177282168 L 63.49999999999999 -5.010465608039016 L 63.5 5.010465608039014 L 63.5 13.773531177282168 L 63.5 19.078784028339026 L 63.5 30.000000000000007 L 63.5 30.0 L 63.5 -30.0 L 63.5 -30.0 Z " stroke="#000000" stroke-width="0.35 px" style="stroke-width:0.35;stroke-miterlimit:4;stroke-dasharray:none;stroke-linecap:square;fill:url(#shape color);fill-opacity:1;fill-rule: evenodd"/>
<path id="Part_f0106"  d="M 48.5 -30.0 L 63.5 -30.0 L 63.5 30.0 L 48.5 30.0 L 48.5 -30.0 Z " stroke="#000000" stroke-width="0.35 px" style="stroke-width:0.35;stroke-miterlimit:4;stroke-dasharray:none;stroke-linecap:square;fill:url(#shape color);fill-opacity:1;fill-rule: evenodd"/>
<path id="Part_f0107"  d="M 48.5 30.0 L 48.5 -30.0 L 48.5 -30.0 L 48.5 -19.0787840283391 M 48.49999999999999 -19.07878402833901 L 48.49999999999999 -13.773531177282164 L 48.49999999999999 -5.010465608039013 L 48.5 5.010465608039017 L 48.5 13.773531177282171 L 48.5 19.07878402833903 L 48.5 30.000000000000007 L 48.5 30.0 Z " stroke="#000000" stroke-width="0.35 px" style="stroke-width:0.35;stroke-miterlimit:4;stroke-dasharray:none;stroke-linecap:square;fill:url(#shape color);fill-opacity:1;fill-rule: evenodd"/>
<path id="Part_f0108"  d="M 63.5 -19.078784028338912 L 48.5 -19.07878402833891 L 48.5 -30.0 L 63.5 -30.0 L 63.5 -19.078784028339104 Z M 61.5 -28.0 L 61.5 -21.999999999999993 L 50.5 -21.999999999999993 L 50.5 -28.0 L 61.5 -28.0 Z " stroke="#000000" stroke-width="0.35 px" style="stroke-width:0.35;stroke-miterlimit:4;stroke-dasharray:none;stroke-linecap:square;fill:url(#shape color);fill-opacity:1;fill-rule: evenodd"/>
<path id="Part_f0109"  d="M 48.5 19.07878402833912 L 63.5 19.078784028339115 M 63.5 19.078784028339026 L 63.5 13.773531177282168 L 63.5 5.010465608039014 L 63.49999999999999 -5.0104656080390155 L 63.49999999999999 -13.773531177282166 L 63.49999999999999 -19.078784028339015 L 48.5 -19.07878402833891 M 48.49999999999999 -19.07878402833901 L 48.49999999999999 -13.773531177282164 L 48.49999999999999 -5.010465608039013 L 48.5 5.010465608039017 L 48.5 13.773531177282171 L 48.5 19.07878402833903 Z " stroke="#000000" stroke-width="0.35 px" style="stroke-width:0.35;stroke-miterlimit:4;stroke-dasharray:none;stroke-linecap:square;fill:url(#shape color);fill-opacity:1;fill-rule: evenodd"/>
<path id="Part_f0110"  d="M 48.5 19.07878402833912 L 48.5 30.000000000000007 L 63.5 30.000000000000007 L 63.5 19.078784028339115 L 48.5 19.07878402833893 Z M 61.5 22.00000000000001 L 61.5 28.000000000000007 L 50.5 28.000000000000007 L 50.5 22.00000000000001 L 61.5 22.00000000000001 Z " stroke="#000000" stroke-width="0.35 px" style="stroke-width:0.35;stroke-miterlimit:4;stroke-dasharray:none;stroke-linecap:square;fill:url(#shape color);fill-opacity:1;fill-rule: evenodd"/>
<path id="Part_f0111"  d="M 48.5 30.0 L 48.5 30.0 L 63.5 30.000000000000007 L 63.5 30.0 L 48.5 30.0 Z " stroke="#000000" stroke-width="0.35 px" style="stroke-width:0.35;stroke-miterlimit:4;stroke-dasharray:none;stroke-linecap:square;fill:url(#shape color);fill-opacity:1;fill-rule: evenodd"/>
<path id="Part_f0112"  d="M 61.5 -21.999999999999993 L 50.5 -21.999999999999993 L 50.5 -21.999999999999993 L 61.5 -21.999999999999993 L 61.5 -21.999999999999993 Z " stroke="#000000" stroke-width="0.35 px" style="stroke-width:0.35;stroke-miterlimit:4;stroke-dasharray:none;stroke-linecap:square;fill:url(#shape color);fill-opacity:1;fill-rule: evenodd"/>
<path id="Part_f0113"  d="M 50.5 -21.999999999999993 L 50.5 -28.0 L 50.5 -28.0 L 50.5 -21.999999999999993 L 50.5 -21.999999999999993 Z " stroke="#000000" stroke-width="0.35 px" style="stroke-width:0.35;stroke-miterlimit:4;stroke-dasharray:none;stroke-linecap:square;fill:url(#shape color);fill-opacity:1;fill-rule: evenodd"/>
<path id="Part_f0114"  d="M 61.5 -28.0 L 61.5 -21.999999999999993 L 61.5 -21.999999999999993 L 61.5 -28.0 L 61.5 -28.0 Z " stroke="#000000" stroke-width="0.35 px" style="stroke-width:0.35;stroke-miterlimit:4;stroke-dasharray:none;stroke-linecap:square;fill:url(#shape color);fill-opacity:1;fill-rule: evenodd"/>
<path id="Part_f0115"  d="M 50.5 -28.0 L 61.5 -28.0 L 61.5 -28.0 L 50.5 -28.0 L 50.5 -28.0 Z " stroke="#000000" stroke-width="0.35 px" style="stroke-width:0.35;stroke-miterlimit:4;stroke-dasharray:none;stroke-linecap:square;fill:url(#shape color);fill-opacity:1;fill-rule: evenodd"/>
<path id="Part_f0116"  d="M 61.5 28.000000000000007 L 50.5 28.000000000000007 L 50.5 28.000000000000007 L 61.5 28.000000000000007 L 61.5 28.000000000000007 Z " stroke="#000000" stroke-width="0.35 px" style="stroke-width:0.35;stroke-miterlimit:4;stroke-dasharray:none;stroke-linecap:square;fill:url(#shape color);fill-opacity:1;fill-rule: evenodd"/>
<path id="Part_f0117"  d="M 50.5 28.000000000000007 L 50.5 22.00000000000001 L 50.5 22.00000000000001 L 50.5 28.000000000000007 L 50.5 28.000000000000007 Z " stroke="#000000" stroke-width="0.35 px" style="stroke-width:0.35;stroke-miterlimit:4;stroke-dasharray:none;stroke-linecap:square;fill:url(#shape color);fill-opacity:1;fill-rule: evenodd"/>
<path id="Part_f0118"  d="M 61.5 22.00000000000001 L 61.5 28.000000000000007 L 61.5 28.000000000000007 L 61.5 22.00000000000001 L 61.5 22.00000000000001 Z " stroke="#000000" stroke-width="0.35 px" style="stroke-width:0.35;stroke-miterlimit:4;stroke-dasharray:none;stroke-linecap:square;fill:url(#shape color);fill-opacity:1;fill-rule: evenodd"/>
<path id="Part_f0119"  d="M 50.5 22.00000000000001 L 61.5 22.00000000000001 L 61.5 22.00000000000001 L 50.5 22.00000000000001 L 50.5 22.00000000000001 Z " stroke="#000000" stroke-width="0.35 px" style="stroke-width:0.35;stroke-miterlimit:4;stroke-dasharray:none;stroke-linecap:square;fill:url(#shape color);fill-opacity:1;fill-rule: evenodd"/>
<circle cx="56.0" cy="-25.0" r="2.25" stroke="#000000" stroke-width="0.35 px" style="stroke-width:0.35;stroke-miterlimit:4;stroke-dasharray:none;stroke-linecap:square;fill:url(#shape color)"/>
<circle cx="56.0" cy="25.0" r="2.25" stroke="#000000" stroke-width="0.35 px" style="stroke-width:0.35;stroke-miterlimit:4;stroke-dasharray:none;stroke-linecap:square;fill:url(#shape color)"/>
<circle cx="56.0" cy="-25.0" r="2.25" stroke="#000000" stroke-width="0.35 px" style="stroke-width:0.35;stroke-miterlimit:4;stroke-dasharray:none;stroke-linecap:square;fill:url(#shape color)"/>
<circle cx="56.0" cy="25.0" r="2.25" stroke="#000000" stroke-width="0.35 px" style="stroke-width:0.35;stroke-miterlimit:4;stroke-dasharray:none;stroke-linecap:square;fill:url(#shape color)"/>
<circle cx="56.0" cy="-25.0" r="2.25" stroke="#000000" stroke-width="0.35 px" style="stroke-width:0.35;stroke-miterlimit:4;stroke-dasharray:none;stroke-linecap:square;fill:url(#shape color)"/>
<circle cx="56.0" cy="25.0" r="2.25" stroke="#000000" stroke-width="0.35 px" style="stroke-width:0.35;stroke-miterlimit:4;stroke-dasharray:none;stroke-linecap:square;fill:url(#shape color)"/>
<title>b'TASCAM audio interface stand'</title>
</g>
</svg>